Coordinates
version=1
nRows=13
nColumns=22
inDegrees=yes

Units are S.I. units (second, meters, Newtons, ...)
If the header above contains a line with 'inDegrees', this indicates whether rotational values are in degrees (yes) or radians (no).

endheader
time	pelvis_tilt	pelvis_list	pelvis_rotation	pelvis_tx	pelvis_ty	pelvis_tz	hip_flexion_r	hip_adduction_r	hip_rotation_r	knee_angle_r	ankle_angle_r	subtalar_angle_r	hip_flexion_l	hip_adduction_l	hip_rotation_l	knee_angle_l	ankle_angle_l	subtalar_angle_l	lumbar_extension	lumbar_bending	lumbar_rotation
      1.33000000	     -4.20531576	     -7.46174986	      3.30344225	     -1.06129056	      0.97560997	     -0.25815489	      7.13097976	      7.80553063	     -4.50410528	    -15.12125098	     10.23285018	     -0.19127470	      3.84607309	     -8.30166715	      5.40711631	     -8.22446539	     11.56714102	     -0.74036470	      2.44828088	      7.18783150	     -6.62220918
      1.34000000	     -4.26457386	     -7.48718077	      3.39055772	     -1.06110612	      0.97549090	     -0.25791572	      7.19004629	      7.84107891	     -4.58306406	    -15.12245752	     10.23478632	     -0.20747893	      3.90572544	     -8.34961523	      5.51420262	     -8.20165278	     11.56659216	     -0.67115731	      2.46372731	      7.23243352	     -6.68220879
      1.35000000	     -4.31004081	     -7.48930356	      3.42228223	     -1.06083363	      0.97539452	     -0.25760725	      7.22451202	      7.86042887	     -4.59649239	    -15.12606372	     10.26677566	     -0.21518128	      3.90370543	     -8.38074637	      5.52424211	     -8.12964402	     11.57408100	     -0.65116448	      2.46114801	      7.25798756	     -6.69507686
      1.36000000	     -4.35968856	     -7.49658491	      3.45890108	     -1.06055126	      0.97529393	     -0.25728367	      7.26199694	      7.88646428	     -4.61175401	    -15.12663762	     10.29894621	     -0.22426421	      3.90461880	     -8.41818037	      5.56597239	     -8.05536802	     11.56867376	     -0.61648363	      2.46225975	      7.29011234	     -6.69762106
      1.37000000	     -4.41074990	     -7.49872201	      3.49133615	     -1.06024377	      0.97519396	     -0.25693646	      7.29781411	      7.90857865	     -4.62153025	    -15.12515448	     10.32602303	     -0.23315547	      3.90468140	     -8.45179413	      5.59942795	     -7.98245640	     11.56782225	     -0.57599525	      2.46295725	      7.31891924	     -6.70167392
      1.38000000	     -4.46078200	     -7.49902327	      3.51849496	     -1.05991904	      0.97509554	     -0.25656073	      7.33427452	      7.93074059	     -4.62288265	    -15.12970497	     10.35766111	     -0.24300128	      3.90319305	     -8.48535935	      5.63107791	     -7.91376999	     11.56764621	     -0.52789235	      2.45926967	      7.34826932	     -6.69176961
      1.39000000	     -4.50814199	     -7.49702855	      3.54008435	     -1.05958223	      0.97499771	     -0.25615151	      7.37244465	      7.95301485	     -4.61536682	    -15.14391209	     10.39341909	     -0.25321216	      3.89944623	     -8.51869933	      5.65628083	     -7.84975405	     11.57070130	     -0.47417917	      2.44866851	      7.37779339	     -6.67498329
      1.40000000	     -4.57226793	     -7.49125180	      3.55777208	     -1.05923785	      0.97488761	     -0.25570383	      7.42883739	      7.97275842	     -4.60673755	    -15.15927840	     10.42516116	     -0.27692767	      3.92825849	     -8.54880284	      5.66364122	     -7.81284050	     11.58630565	     -0.25399370	      2.45346815	      7.40176524	     -6.64515948
      1.41000000	     -4.59965020	     -7.48195941	      3.57635598	     -1.05889688	      0.97480912	     -0.25524571	      7.46548758	      7.99136295	     -4.58692085	    -15.21068166	     10.46302965	     -0.28290946	      3.91671040	     -8.57676301	      5.68148241	     -7.77478185	     11.60145985	     -0.23455943	      2.40751210	      7.43100221	     -6.63813398
      1.42000000	     -4.63295820	     -7.47299337	      3.59051341	     -1.05852805	      0.97472334	     -0.25474186	      7.50890322	      8.01233315	     -4.57858464	    -15.26527248	     10.51870578	     -0.29053737	      3.90916269	     -8.60715292	      5.69935359	     -7.73718629	     11.61092382	     -0.20322084	      2.36652168	      7.46022903	     -6.61252141
      1.43000000	     -4.66687979	     -7.45658313	      3.60151724	     -1.05815342	      0.97463411	     -0.25420098	      7.56279325	      8.02722362	     -4.57007025	    -15.33929035	     10.57440309	     -0.29830499	      3.90737418	     -8.63072491	      5.70986552	     -7.71059771	     11.62248974	     -0.16330352	      2.32000543	      7.48315180	     -6.59640499
      1.44000000	     -4.72849955	     -7.41997291	      3.60569211	     -1.05776200	      0.97449902	     -0.25361893	      7.65875523	      8.01779169	     -4.58927532	    -15.44126486	     10.67776613	     -0.31236576	      3.93696165	     -8.63272367	      5.69881873	     -7.69219597	     11.65050989	     -0.05174275	      2.30183910	      7.48180688	     -6.55482972
      1.45000000	     -4.80546573	     -7.36615544	      3.61202568	     -1.05742996	      0.97435056	     -0.25298814	      7.78837103	      7.99395232	     -4.58038566	    -15.56883245	     10.74026726	     -0.32398288	      4.00889599	     -8.61560859	      5.68775074	     -7.71280157	     11.67524625	      0.12850855	      2.28715763	      7.46025071	     -6.56385953
